<svg xmlns="http://www.w3.org/2000/svg" viewBox="0 0 512 512" role="img" aria-label="StumpCalc">
  <defs>
    <linearGradient id="grad" x1="0%" y1="0%" x2="0%" y2="100%">
      <stop offset="0%" stop-color="#facc15" />
      <stop offset="100%" stop-color="#eab308" />
    </linearGradient>
  </defs>
  <rect width="512" height="512" rx="88" fill="#0f172a" />
  <circle cx="256" cy="256" r="150" fill="url(#grad)" stroke="#fde68a" stroke-width="16" />
  <path d="M176 276c36 22 124 22 160 0" fill="none" stroke="#0f172a" stroke-width="24" stroke-linecap="round" />
  <path d="M152 216c56-52 152-52 208 0" fill="none" stroke="#0f172a" stroke-width="24" stroke-linecap="round" />
  <path d="M178 322c24 18 132 18 156 0" fill="none" stroke="#0f172a" stroke-width="18" stroke-linecap="round" />
  <g fill="#0f172a">
    <rect x="240" y="110" width="32" height="64" rx="8" />
    <rect x="232" y="330" width="48" height="72" rx="10" />
  </g>
  <g stroke="#0f172a" stroke-width="14" stroke-linecap="round">
    <line x1="256" y1="188" x2="256" y2="212" />
    <line x1="214" y1="194" x2="222" y2="218" />
    <line x1="298" y1="194" x2="290" y2="218" />
  </g>
  <rect x="140" y="368" width="232" height="32" rx="12" fill="#1e293b" />
</svg>
